<?xml version="1.0" encoding="UTF-8"?>
<svg width="99px" height="78px" viewBox="0 0 99 78" version="1.1" xmlns="http://www.w3.org/2000/svg" xmlns:xlink="http://www.w3.org/1999/xlink">
    <title>folder</title>
    <defs>
        <path d="M0,71.4078766 C0,72.7293076 1.06689453,73.8005391 2.395841,73.8005391 L92.604159,73.8005391 C93.9273454,73.8005391 95,72.7271155 95,71.409858 L95,11.9717352 C95,9.32566043 92.8503479,7.18059299 90.1974057,7.18059299 L37.0054529,7.18059299 C35.6772046,7.18059299 33.9190405,6.35688767 33.0707209,5.33141187 L29.93464,1.54041735 C29.2308622,0.689668338 27.7711628,0 26.667753,0 L4.79709613,0 C2.14773309,0 0,2.14888707 0,4.79958433 L0,71.4078766 Z" id="path-1"></path>
        <filter x="-3.7%" y="-3.4%" width="107.4%" height="109.5%" filterUnits="objectBoundingBox" id="filter-2">
            <feOffset dx="0" dy="1" in="SourceAlpha" result="shadowOffsetOuter1"></feOffset>
            <feGaussianBlur stdDeviation="1" in="shadowOffsetOuter1" result="shadowBlurOuter1"></feGaussianBlur>
            <feColorMatrix values="0 0 0 0 0   0 0 0 0 0   0 0 0 0 0  0 0 0 0.348307292 0" type="matrix" in="shadowBlurOuter1"></feColorMatrix>
        </filter>
        <path d="M0,71.4068072 C0,72.7288288 1.06689453,73.8005391 2.395841,73.8005391 L92.604159,73.8005391 C93.9273454,73.8005391 95,72.7238516 95,71.4068072 L95,16.5584292 C95,13.9128554 92.8600015,11.7681941 90.1911295,11.7681941 L4.80887055,11.7681941 C2.15300468,11.7681941 0,13.9215021 0,16.5584292 L0,71.4068072 Z" id="path-3"></path>
        <linearGradient x1="50%" y1="0%" x2="50%" y2="98.9835778%" id="linearGradient-5">
            <stop stop-color="#FFFFFF" stop-opacity="0.30321558" offset="0%"></stop>
            <stop stop-color="#ECF6FF" stop-opacity="0.101675725" offset="12.8009407%"></stop>
            <stop stop-color="#29639F" stop-opacity="0.131272965" offset="91.7091837%"></stop>
            <stop stop-color="#0E4F92" stop-opacity="0.135303442" offset="100%"></stop>
        </linearGradient>
    </defs>
    <g id="Page-1" stroke="none" stroke-width="1" fill="none" fill-rule="evenodd">
        <g id="Add-Project" transform="translate(-202.000000, -196.000000)">
            <g id="Project" transform="translate(184.000000, 197.000000)">
                <g id="folder" transform="translate(20.000000, 0.000000)">
                    <g id="Path-99">
                        <use fill="black" fill-opacity="1" filter="url(#filter-2)" xlink:href="#path-1"></use>
                        <use fill="#367AE3" fill-rule="evenodd" xlink:href="#path-1"></use>
                    </g>
                    <mask id="mask-4" fill="white">
                        <use xlink:href="#path-3"></use>
                    </mask>
                    <use id="Mask" fill="#468CF8" xlink:href="#path-3"></use>
                    <rect id="Rectangle-34" fill="url(#linearGradient-5)" mask="url(#mask-4)" x="-1.20253165" y="66.6199461" width="99.6097046" height="2.393531"></rect>
                    <rect id="Rectangle-34" fill="url(#linearGradient-5)" mask="url(#mask-4)" x="-1.20253165" y="69.0134771" width="99.6097046" height="2.393531"></rect>
                    <rect id="Rectangle-34" fill="url(#linearGradient-5)" mask="url(#mask-4)" x="-1.20253165" y="71.4070081" width="99.6097046" height="2.393531"></rect>
                </g>
            </g>
        </g>
    </g>
</svg>