<svg width="61" height="96" viewBox="0 0 61 96" fill="none" xmlns="http://www.w3.org/2000/svg">
<path fill-rule="evenodd" clip-rule="evenodd" d="M55.7164 30.7046C62.0732 39.5459 58.4839 47.5477 48.1845 48.8551C46.8746 59.1353 38.8579 62.718 30.0001 56.373C21.1422 62.718 13.1255 59.1353 11.8156 48.8551C1.51627 47.5477 -2.0731 39.5459 4.28374 30.7046C-2.0731 21.8632 1.51627 13.8615 11.8156 12.554C13.1255 2.27384 21.1422 -1.30884 30.0001 5.03615C38.8579 -1.30884 46.8746 2.27384 48.1845 12.554C58.4839 13.8615 62.0732 21.8632 55.7164 30.7046Z" stroke="#D2D8E0" stroke-width="2" stroke-linejoin="round"/>
<path d="M30 38.1137C33.5463 38.1137 36.4211 35.2443 36.4211 31.7046C36.4211 28.165 33.5463 25.2955 30 25.2955C26.4538 25.2955 23.579 28.165 23.579 31.7046C23.579 35.2443 26.4538 38.1137 30 38.1137Z" stroke="#D2D8E0" stroke-width="2" stroke-linejoin="round"/>
<path d="M30 57.3409V95.7955" stroke="#D2D8E0" stroke-width="2" stroke-linejoin="round"/>
</svg>
