<?xml version="1.0" encoding="UTF-8"?>
<svg width="124px" height="143px" viewBox="0 0 124 143" version="1.1" xmlns="http://www.w3.org/2000/svg" xmlns:xlink="http://www.w3.org/1999/xlink">
    <!-- Generator: Sketch Beta 53.1 (72631) - https://sketchapp.com -->
    <title>getstarted</title>
    <desc>Created with Sketch Beta.</desc>
    <g id="Page-1" stroke="none" stroke-width="1" fill="none" fill-rule="evenodd" stroke-linejoin="round">
        <g id="Get-Started-Copy" transform="translate(-190.000000, -168.000000)" stroke-width="2">
            <g id="getstarted" transform="translate(191.000000, 169.000000)">
                <path d="M122,35.25 L122,134.590909 C122,138.130552 119.125197,141 115.578947,141 L6.42105263,141 C2.87480319,141 0,138.130552 0,134.590909 L0,6.40909091 C0,2.86944774 2.87480319,0 6.42105263,0 L83.4736842,0 L122,35.25 Z" id="Path" stroke="#468CF8" stroke-linecap="round" stroke-dasharray="6"></path>
                <path d="M83.4736842,0 L83.4736842,28.8409091 C83.4736842,32.3805523 86.3484874,35.25 89.8947368,35.25 L122,35.25" id="Path" stroke="#468CF8" stroke-linecap="round" stroke-dasharray="6"></path>
                <path d="M86.7163158,74.7045455 C93.0731579,83.5458864 89.4837895,91.5476364 79.1844211,92.8550909 C77.8745263,103.135273 69.8578421,106.717955 61,100.372955 C52.1421579,106.717955 44.1254737,103.135273 42.8155789,92.8550909 C32.5162105,91.5476364 28.9268421,83.5458864 35.2836842,74.7045455 C28.9268421,65.8632045 32.5162105,57.8614545 42.8155789,56.554 C44.1254737,46.2738182 52.1421579,42.6911364 61,49.0361364 C69.8578421,42.6911364 77.8745263,46.2738182 79.1844211,56.554 C89.4837895,57.8614545 93.0731579,65.8632045 86.7163158,74.7045455 L86.7163158,74.7045455 Z" id="Path" stroke="#4D4D5A"></path>
                <ellipse id="Oval" stroke="#4D4D5A" cx="61" cy="75.7045455" rx="6.42105263" ry="6.40909091"></ellipse>
                <path d="M61,101.340909 L61,139.795455" id="Path" stroke="#4D4D5A"></path>
            </g>
        </g>
    </g>
</svg>