<?xml version="1.0" encoding="UTF-8"?>
<svg width="23px" height="23px" viewBox="0 0 23 23" version="1.1" xmlns="http://www.w3.org/2000/svg" xmlns:xlink="http://www.w3.org/1999/xlink">
    <!-- Generator: Sketch Beta 53.1 (72631) - https://sketchapp.com -->
    <title>Shape</title>
    <desc>Created with Sketch Beta.</desc>
    <g id="Page-1" stroke="none" stroke-width="1" fill="none" fill-rule="evenodd">
        <g id="Get-Started" transform="translate(-410.000000, -58.000000)" fill="#4D4D5A" fill-rule="nonzero">
            <path d="M433,69.5 C433,68.6481481 432.425,67.7962963 431.5625,67.5123457 C430.84375,67.2283951 430.125,66.6604938 429.8375,66.0925926 C429.69375,65.5246914 429.69375,64.6728395 429.98125,63.8209877 C430.26875,63.1111111 430.125,61.9753086 429.55,61.4074074 C428.975,60.8395062 427.96875,60.6975309 427.25,60.9814815 C426.53125,61.2654321 425.525,61.4074074 424.95,61.1234568 C424.375,60.8395062 423.8,60.1296296 423.5125,59.4197531 C423.225,58.7098765 422.3625,58 421.5,58 C420.6375,58 419.775,58.5679012 419.4875,59.4197531 C419.2,60.1296296 418.625,60.8395062 418.05,61.1234568 C417.475,61.4074074 416.46875,61.4074074 415.75,60.9814815 C415.03125,60.6975309 414.025,60.8395062 413.30625,61.4074074 C412.73125,62.117284 412.5875,63.1111111 412.875,63.8209877 C413.1625,64.5308642 413.30625,65.5246914 413.01875,66.0925926 C412.875,66.5185185 412.15625,67.2283951 411.4375,67.5123457 C410.575,67.7962963 410,68.6481481 410,69.5 C410,70.3518519 410.575,71.2037037 411.4375,71.4876543 C412.15625,71.7716049 412.875,72.3395062 413.1625,72.9074074 C413.45,73.4753086 413.30625,74.3271605 413.01875,75.1790123 C412.73125,75.8888889 412.875,77.0246914 413.45,77.5925926 C414.025,78.1604938 415.03125,78.3024691 415.75,78.0185185 C416.46875,77.7345679 417.475,77.5925926 418.05,77.8765432 C418.625,78.1604938 419.2,78.8703704 419.4875,79.5802469 C419.775,80.2901235 420.6375,81 421.5,81 C422.3625,81 423.225,80.4320988 423.5125,79.5802469 C423.8,78.8703704 424.375,78.1604938 424.95,77.8765432 C425.525,77.7345679 426.3875,77.7345679 427.25,78.0185185 C427.96875,78.3024691 429.11875,78.1604938 429.69375,77.5925926 C430.26875,77.0246914 430.55625,75.8888889 430.125,75.1790123 C429.8375,74.4691358 429.69375,73.4753086 429.98125,72.9074074 C430.125,72.3395062 430.9875,71.7716049 431.70625,71.4876543 C432.425,71.2037037 433,70.3518519 433,69.5 L433,69.5 Z M421.5,73.617284 C419.2,73.617284 417.33125,71.7716049 417.33125,69.5 C417.33125,67.2283951 419.2,65.382716 421.5,65.382716 C423.8,65.382716 425.66875,67.2283951 425.66875,69.5 C425.66875,71.7716049 423.8,73.617284 421.5,73.617284 L421.5,73.617284 Z" id="Shape" style="mix-blend-mode: normal;"></path>
        </g>
    </g>
</svg>