<svg width="18" height="18" viewBox="0 0 18 18" xmlns="http://www.w3.org/2000/svg">
<path fill-rule="evenodd" clip-rule="evenodd" d="M17.4608 0.539168C18.1797 1.25806 18.1797 2.42361 17.4608 3.1425L11.6033 9L17.4608 14.8575C18.1797 15.5764 18.1797 16.7419 17.4608 17.4608C16.7419 18.1797 15.5764 18.1797 14.8575 17.4608L9 11.6033L3.1425 17.4608C2.42361 18.1797 1.25806 18.1797 0.539167 17.4608C-0.179723 16.7419 -0.179722 15.5764 0.539168 14.8575L6.39667 9L0.539168 3.1425C-0.179722 2.42361 -0.179723 1.25806 0.539167 0.539169C1.25806 -0.179722 2.42361 -0.179722 3.1425 0.539169L9 6.39667L14.8575 0.539168C15.5764 -0.179723 16.7419 -0.179723 17.4608 0.539168Z" fill="black"/>
</svg>
