<?xml version="1.0" encoding="UTF-8"?>
<svg width="18px" height="18px" viewBox="0 0 18 18" version="1.1" xmlns="http://www.w3.org/2000/svg" xmlns:xlink="http://www.w3.org/1999/xlink">
    <title>ico_close</title>
    <g id="Page-1" stroke="none" stroke-width="1" fill="none" fill-rule="evenodd">
        <g id="Add-Project" transform="translate(-413.000000, -62.000000)" fill="#D2D8E0">
            <g id="Nav" transform="translate(146.000000, 59.000000)">
                <path d="M281.857499,3.53916791 C282.57639,2.82027736 283.741942,2.82027736 284.460832,3.53916791 C285.179723,4.25805845 285.179723,5.42361032 284.460832,6.14250086 L284.460832,6.14250086 L278.603,12 L284.460832,17.8574991 C285.179723,18.5763897 285.179723,19.7419415 284.460832,20.4608321 C283.741942,21.1797226 282.57639,21.1797226 281.857499,20.4608321 L276,14.603 L270.142501,20.4608321 C269.463549,21.1397843 268.386186,21.1775038 267.662966,20.5739908 L267.539168,20.4608321 C266.820277,19.7419415 266.820277,18.5763897 267.539168,17.8574991 L267.539168,17.8574991 L273.397,12 L267.539168,6.14250086 C266.820277,5.42361032 266.820277,4.25805845 267.539168,3.53916791 C268.258058,2.82027736 269.42361,2.82027736 270.142501,3.53916791 L276,9.397 Z" id="ico_close"></path>
            </g>
        </g>
    </g>
</svg>