<?xml version="1.0" encoding="UTF-8"?>
<svg width="61px" height="96px" viewBox="0 0 61 96" version="1.1" xmlns="http://www.w3.org/2000/svg" xmlns:xlink="http://www.w3.org/1999/xlink">
    <title>ico_flower_drag</title>
    <g id="Page-1" stroke="none" stroke-width="1" fill="none" fill-rule="evenodd" stroke-linejoin="round">
        <g id="Get-Started" transform="translate(-222.000000, -213.000000)" stroke="#468CF8" stroke-width="2">
            <g id="getstarted_drag" transform="translate(191.000000, 169.000000)">
                <g id="ico_flower_drag" transform="translate(32.121766, 45.880108)">
                    <path d="M54.5945501,28.8244373 C60.9513922,37.6657782 57.3620238,45.6675282 47.0626554,46.9749828 C45.7527607,57.2551646 37.7360764,60.8378464 28.8782343,54.4928464 C20.0203922,60.8378464 12.003708,57.2551646 10.6938133,46.9749828 C0.394444868,45.6675282 -3.19492355,37.6657782 3.16191855,28.8244373 C-3.19492355,19.9830964 0.394444868,11.9813464 10.6938133,10.6738919 C12.003708,0.39371006 20.0203922,-3.18897176 28.8782343,3.15602824 C37.7360764,-3.18897176 45.7527607,0.39371006 47.0626554,10.6738919 C57.3620238,11.9813464 60.9513922,19.9830964 54.5945501,28.8244373 L54.5945501,28.8244373 Z" id="Path"></path>
                    <ellipse id="Oval" cx="28.8782343" cy="29.8244373" rx="6.42105263" ry="6.40909091"></ellipse>
                    <line x1="28.8782343" y1="55.460801" x2="28.8782343" y2="93.9153464" id="Path"></line>
                </g>
            </g>
        </g>
    </g>
</svg>