<?xml version="1.0" encoding="UTF-8"?>
<svg width="23px" height="23px" viewBox="0 0 23 23" version="1.1" xmlns="http://www.w3.org/2000/svg" xmlns:xlink="http://www.w3.org/1999/xlink">
    <title>Shape Copy</title>
    <g id="Page-1" stroke="none" stroke-width="1" fill="none" fill-rule="evenodd">
        <g id="Get-Started-Copy" transform="translate(-410.000000, -88.000000)" fill="#D2D8E0" fill-rule="nonzero">
            <path d="M433,99.5 C433,98.6481481 432.425,97.7962963 431.5625,97.5123457 C430.84375,97.2283951 430.125,96.6604938 429.8375,96.0925926 C429.69375,95.5246914 429.69375,94.6728395 429.98125,93.8209877 C430.26875,93.1111111 430.125,91.9753086 429.55,91.4074074 C428.975,90.8395062 427.96875,90.6975309 427.25,90.9814815 C426.53125,91.2654321 425.525,91.4074074 424.95,91.1234568 C424.375,90.8395062 423.8,90.1296296 423.5125,89.4197531 C423.225,88.7098765 422.3625,88 421.5,88 C420.6375,88 419.775,88.5679012 419.4875,89.4197531 C419.2,90.1296296 418.625,90.8395062 418.05,91.1234568 C417.475,91.4074074 416.46875,91.4074074 415.75,90.9814815 C415.03125,90.6975309 414.025,90.8395062 413.30625,91.4074074 C412.73125,92.117284 412.5875,93.1111111 412.875,93.8209877 C413.1625,94.5308642 413.30625,95.5246914 413.01875,96.0925926 C412.875,96.5185185 412.15625,97.2283951 411.4375,97.5123457 C410.575,97.7962963 410,98.6481481 410,99.5 C410,100.351852 410.575,101.203704 411.4375,101.487654 C412.15625,101.771605 412.875,102.339506 413.1625,102.907407 C413.45,103.475309 413.30625,104.32716 413.01875,105.179012 C412.73125,105.888889 412.875,107.024691 413.45,107.592593 C414.025,108.160494 415.03125,108.302469 415.75,108.018519 C416.46875,107.734568 417.475,107.592593 418.05,107.876543 C418.625,108.160494 419.2,108.87037 419.4875,109.580247 C419.775,110.290123 420.6375,111 421.5,111 C422.3625,111 423.225,110.432099 423.5125,109.580247 C423.8,108.87037 424.375,108.160494 424.95,107.876543 C425.525,107.734568 426.3875,107.734568 427.25,108.018519 C427.96875,108.302469 429.11875,108.160494 429.69375,107.592593 C430.26875,107.024691 430.55625,105.888889 430.125,105.179012 C429.8375,104.469136 429.69375,103.475309 429.98125,102.907407 C430.125,102.339506 430.9875,101.771605 431.70625,101.487654 C432.425,101.203704 433,100.351852 433,99.5 L433,99.5 Z M421.5,103.617284 C419.2,103.617284 417.33125,101.771605 417.33125,99.5 C417.33125,97.2283951 419.2,95.382716 421.5,95.382716 C423.8,95.382716 425.66875,97.2283951 425.66875,99.5 C425.66875,101.771605 423.8,103.617284 421.5,103.617284 L421.5,103.617284 Z" id="Shape-Copy"></path>
        </g>
    </g>
</svg>